#!OML:ASF H:\Dans Jumps\Project 1\Capture day 1\Session 1\subject.ASF
:FULLY-SPECIFIED
:DEGREES
320
root 0.315099 16.2673 -11.6971 19.7947 1.21009 -2.05217
lowerback 12.1186 -0.104027 -2.2097
upperback -0.544108 -0.22367 3.12244
thorax -7.37652 0.0424555 4.61644
lowerneck -20.8293 0.228544 -2.19256
upperneck 16.8814 1.0582 -0.352112
head 8.69128 0.311512 0.378535
rclavicle 4.17448e-015 -1.70955e-014
rhumerus -16.9417 -12.7827 -79.7357
rradius 27.4381
rwrist 33.8657
rhand -22.2798 -28.3762
rfingers 7.12502
rthumb 4.1386 -58.3158
lclavicle 4.17448e-015 -1.70955e-014
lhumerus -11.2852 13.7146 83.0919
lradius 13.4529
lwrist -7.91407
lhand -29.6151 -8.78351
lfingers 7.12502
lthumb -2.94576 21.1759
rfemur -35.3764 -1.81015 21.9333
rtibia 52.5288
rfoot -29.2968 -16.049
rtoes -11.8837
lfemur -36.6523 11.0296 -18.3273
ltibia 53.9715
lfoot -26.4536 13.4241
ltoes -22.3632
321
root 0.321513 16.4496 -11.4809 19.1443 1.34347 -1.84052
lowerback 11.0022 -0.262845 -2.15728
upperback -0.39434 -0.430513 2.99497
thorax -6.56388 -0.0834098 4.45797
lowerneck -19.9211 0.281361 -2.15552
upperneck 17.2394 1.10546 -0.384434
head 8.65536 0.330977 0.366225
rclavicle 3.47873e-015 7.55382e-015
rhumerus -16.7469 -11.7969 -80.0907
rradius 27.7244
rwrist 33.6516
rhand -22.1585 -28.3156
rfingers 7.12502
rthumb 4.25574 -58.2529
lclavicle 3.47873e-015 7.55382e-015
lhumerus -11.2196 11.9799 83.2645
lradius 13.8595
lwrist -6.50386
lhand -29.6946 -8.91102
lfingers 7.12502
lthumb -3.02248 21.0473
rfemur -32.5947 -2.29719 21.6297
rtibia 50.0921
rfoot -27.8541 -14.9854
rtoes -13.0725
lfemur -34.0927 11.0788 -18.1829
ltibia 51.8402
lfoot -24.9654 11.8468
ltoes -23.2342
322
root 0.328164 16.6443 -11.2577 18.4955 1.48869 -1.63086
lowerback 9.76446 -0.425603 -2.0969
upperback -0.207909 -0.641187 2.85857
thorax -5.64862 -0.213287 4.27899
lowerneck -18.9094 0.335508 -2.11437
upperneck 17.5468 1.15012 -0.414494
head 8.58246 0.350815 0.352836
rclavicle -1.67973e-014 2.22639e-014
rhumerus -16.6221 -10.9204 -80.4271
rradius 28.0178
rwrist 33.4113
rhand -21.9734 -28.2357
rfingers 7.12502
rthumb 4.43449 -58.1692
lclavicle -1.67973e-014 2.22639e-014
lhumerus -11.2081 10.27 83.4057
lradius 14.2481
lwrist -5.07952
lhand -29.6809 -8.97866
lfingers 7.12502
lthumb -3.00927 20.9799
rfemur -29.7415 -2.7694 21.2932
rtibia 47.4189
rfoot -25.9168 -13.6614
rtoes -14.2781
lfemur -31.4917 11.0862 -17.9859
ltibia 49.4988
lfoot -23.0508 9.79398
ltoes -23.8186
323
root 0.334967 16.8524 -11.0283 17.8368 1.62568 -1.4244
lowerback 8.44085 -0.581837 -2.04317
upperback 0.0163625 -0.843405 2.71523
thorax -4.65169 -0.339702 4.08887
lowerneck -17.7931 0.393966 -2.06815
upperneck 17.7923 1.19609 -0.442659
head 8.46846 0.373054 0.338455
rclavicle 2.98177e-015 -1.19271e-014
rhumerus -16.5835 -10.1596 -80.7383
rradius 28.3421
rwrist 33.1437
rhand -21.7582 -28.1491
rfingers 7.12502
rthumb 4.64224 -58.0783
lclavicle 2.98177e-015 -1.19271e-014
lhumerus -11.2462 8.61962 83.5241
lradius 14.6193
lwrist -3.68557
lhand -29.5788 -8.96598
lfingers 7.12502
lthumb -2.91074 20.9939
rfemur -26.9311 -3.20497 20.9214
rtibia 44.7803
rfoot -23.5883 -12.1071
rtoes -15.3885
lfemur -28.9332 11.0507 -17.7405
ltibia 47.1677
lfoot -20.7573 7.36923
ltoes -24.0349
